<svg width="594" height="606" viewBox="0 0 594 606" fill="none" xmlns="http://www.w3.org/2000/svg">
<g clip-path="url(#clip0_5786_45510)">
<path d="M506.255 542.307C507.037 544.949 517.691 583.374 471.315 601.596C470.553 601.884 469.826 602.172 469.064 602.405C422.29 618.946 392.296 572.747 392.296 572.747L387.925 449.149L387.322 431.792L409.234 424.252L474.175 401.901L485.379 427.161C485.379 427.161 487.025 431.483 489.433 438.549C495.402 456.085 506.186 490.428 508.361 516.656C509.226 526.892 508.78 535.865 506.214 542.149C506.214 542.149 506.241 542.204 506.269 542.307H506.255Z" fill="#EA9F76"/>
<path d="M416.493 509.391C420.534 507.648 424.808 506.509 429.109 505.528C433.424 504.623 437.822 503.978 442.254 503.69C451.118 503.1 460.173 503.875 468.873 506.358C473.222 507.58 477.434 509.363 481.407 511.552C483.417 512.615 485.29 513.912 487.156 515.195L489.824 517.308C490.73 517.987 491.512 518.824 492.342 519.585C493.165 520.361 493.989 521.129 494.716 522C495.464 522.844 496.218 523.681 496.939 524.545L498.928 527.269C499.251 527.729 499.607 528.154 499.896 528.641L500.767 530.075C503.141 533.855 504.842 537.985 506.187 542.149C503.737 538.493 501.46 534.829 498.592 531.639L497.577 530.404C497.247 529.986 496.85 529.629 496.493 529.238L494.291 526.953C492.692 525.568 491.224 524.065 489.523 522.83C487.924 521.479 486.147 520.367 484.439 519.174C482.628 518.138 480.878 517.013 478.985 516.135L477.592 515.428C477.119 515.208 476.639 515.009 476.158 514.804L474.724 514.186C474.251 513.973 473.771 513.775 473.277 513.61L470.341 512.526L467.343 511.613C459.295 509.315 450.857 508.204 442.329 507.984C438.062 507.881 433.761 507.902 429.459 508.19C425.144 508.416 420.829 508.835 416.486 509.411L416.493 509.391Z" fill="#C6764E"/>
<g style="mix-blend-mode:soft-light" opacity="0.5">
<path d="M506.2 542.15C506.2 542.15 506.227 542.204 506.255 542.307C496.438 530.452 480.837 515.606 465.812 518.33C441.259 522.755 467.774 561.023 463.349 576.232C460.653 585.521 460.887 596.992 469.057 602.405C422.283 618.946 392.289 572.747 392.289 572.747L387.918 449.149C394.909 440.093 402.051 431.771 409.227 424.259L474.168 401.908L485.372 427.168C485.372 427.168 487.018 431.49 489.426 438.556C473.64 442.48 437.575 452.819 434.906 465.834C431.867 480.467 485.529 495.855 508.354 516.663C509.219 526.899 508.773 535.872 506.207 542.156L506.2 542.15Z" fill="#151515"/>
</g>
<path d="M215.055 431.792L213.614 472.262L210.081 572.747C210.081 572.747 208.88 574.634 206.548 577.488C201.258 583.978 190.213 595.572 174.722 601.781C162.682 606.624 147.918 608.223 131.062 601.596C102.66 590.447 95.6483 571.704 94.6535 558.251C93.9743 548.935 96.1696 542.156 96.1696 542.156C84.4176 513.308 117.005 427.168 117.005 427.168L128.208 401.908L215.055 431.799V431.792Z" fill="#EA9F76"/>
<path d="M185.864 509.391C181.514 508.814 177.199 508.396 172.89 508.17C168.589 507.881 164.287 507.861 160.02 507.964C151.486 508.183 143.047 509.295 135.007 511.593L132.009 512.505L129.073 513.589C128.579 513.754 128.098 513.953 127.625 514.166L126.191 514.783C125.718 514.996 125.231 515.188 124.757 515.407L123.365 516.114C121.471 516.992 119.722 518.117 117.911 519.153C116.209 520.347 114.432 521.458 112.827 522.81C111.126 524.045 109.657 525.547 108.059 526.933L105.857 529.218C105.5 529.609 105.095 529.965 104.773 530.384L103.757 531.619C100.89 534.809 98.612 538.465 96.1628 542.129C97.5075 537.965 99.2089 533.835 101.583 530.055L102.454 528.621C102.742 528.14 103.099 527.708 103.421 527.249L105.411 524.525C106.131 523.667 106.886 522.83 107.634 521.98C108.361 521.108 109.184 520.34 110.007 519.565C110.844 518.803 111.619 517.973 112.525 517.287L115.194 515.174C117.067 513.891 118.94 512.601 120.95 511.531C124.922 509.343 129.134 507.559 133.484 506.338C142.183 503.854 151.246 503.079 160.103 503.669C164.534 503.957 168.932 504.602 173.247 505.508C177.549 506.482 181.816 507.628 185.864 509.37V509.391Z" fill="#C6764E"/>
<g style="mix-blend-mode:soft-light" opacity="0.5">
<path d="M180.656 481.029C180.656 481.029 181.15 453.046 158.092 446.658C135.007 440.299 121.265 485.921 124.222 493.776C127.152 501.631 184.087 496.239 192.93 503.12C201.752 509.981 156.13 526.178 156.13 526.178L206.541 577.481C201.252 583.971 190.206 595.565 174.715 601.774C159.533 599.812 141.785 595.86 135.508 588.005C123.728 573.296 134.54 543.35 125.196 533.533C117.135 525.053 105.068 543.323 94.6466 558.244C93.9675 548.928 96.1628 542.149 96.1628 542.149C84.4108 513.301 116.998 427.161 116.998 427.161L128.201 401.901L215.048 431.792L213.607 472.262C196.25 479.458 180.65 481.029 180.65 481.029H180.656Z" fill="#151515"/>
</g>
<path d="M489.947 426.166C489.947 426.166 474.793 431.874 455.083 436.478C439.297 440.196 420.636 443.208 404.486 442.076C407.814 533.245 231.445 600.148 231.445 526.123C231.445 526.123 190.508 506.18 199.639 442.076C199.248 442.103 198.83 442.131 198.411 442.131C180.615 443.18 159.931 439.304 143.521 435.112C126.582 430.818 114.206 426.159 114.206 426.159C114.206 426.159 121.402 389.229 157.921 325.303C194.412 261.357 302.066 299.728 302.066 299.728C302.066 299.728 385.016 270.173 429.987 306.218C436.244 311.191 441.766 317.476 446.239 325.297C482.73 389.216 489.954 426.153 489.954 426.153L489.947 426.166Z" fill="#E10101"/>
<path d="M212.263 302.101C212.263 302.101 219.789 356.032 244.61 382.122C247.395 357.5 283.09 324.967 283.09 324.967L212.263 302.101Z" fill="#FD5602"/>
<path d="M391.87 302.101C391.87 302.101 384.344 356.032 359.523 382.122C356.738 357.5 321.042 324.967 321.042 324.967L391.87 302.101Z" fill="#FD5602"/>
<path d="M330.935 325.845C330.935 325.845 316.446 364.71 305.847 376.846C295.247 364.71 280.758 325.845 280.758 325.845H330.935Z" fill="#E58674"/>
<g style="mix-blend-mode:soft-light" opacity="0.5">
<path d="M165.687 356.855C149.928 373.135 145.037 413.392 143.514 435.119C126.575 430.825 114.199 426.166 114.199 426.166C114.199 426.166 121.396 389.236 157.914 325.31C194.405 261.364 302.06 299.734 302.06 299.734C302.06 299.734 385.01 270.179 429.98 306.224C422.18 316.851 407.574 331.588 381.689 342.53C371.611 346.797 359.832 350.488 346.063 353.13C337.425 354.804 328.026 356.038 317.77 356.766C310.388 357.26 302.56 357.527 294.266 357.445C282.672 357.369 270.131 356.635 256.65 355.167C247.203 354.145 237.255 352.759 226.814 350.955C226.814 350.955 226.34 350.742 225.455 350.433C218.362 347.682 185.328 336.562 165.694 356.848L165.687 356.855Z" fill="#151515"/>
</g>
<path d="M237.88 426.489C248.83 426.489 257.706 417.157 257.706 405.647C257.706 394.136 248.83 384.804 237.88 384.804C226.93 384.804 218.053 394.136 218.053 405.647C218.053 417.157 226.93 426.489 237.88 426.489Z" fill="#F2992F"/>
<path d="M237.88 424.65C247.863 424.65 255.957 416.142 255.957 405.647C255.957 395.151 247.863 386.643 237.88 386.643C227.896 386.643 219.802 395.151 219.802 405.647C219.802 416.142 227.896 424.65 237.88 424.65Z" fill="#F9C13A"/>
<path d="M252.801 414.154C249.693 417.721 244.795 419.717 239.965 419.299C237.557 419.066 235.204 418.256 233.139 416.973C231.094 415.683 229.256 413.961 228.035 411.807C226.766 409.687 226.148 407.211 226.114 404.741C226.127 402.271 226.718 399.781 227.952 397.613C228.234 397.057 228.611 396.556 228.968 396.042C229.153 395.795 229.366 395.562 229.565 395.322C229.77 395.081 229.963 394.841 230.203 394.629C231.094 393.73 232.151 392.989 233.31 392.468C235.622 391.404 238.332 391.226 240.768 391.987C241.982 392.372 243.121 392.989 244.116 393.778C245.104 394.553 246.002 395.514 246.633 396.639C247.91 398.868 248.232 401.613 247.505 404.069C247.141 405.297 246.524 406.449 245.7 407.43C244.891 408.411 243.793 409.248 242.558 409.667C241.33 410.12 239.965 410.188 238.696 409.893C238.058 409.749 237.454 409.488 236.885 409.18C236.336 408.837 235.801 408.466 235.362 407.993C234.429 407.08 233.832 405.839 233.647 404.563C233.448 403.28 233.688 401.956 234.271 400.81C234.573 400.24 234.964 399.726 235.43 399.273C235.904 398.82 236.48 398.477 237.097 398.265C238.339 397.832 239.766 398.018 240.843 398.724C241.378 399.081 241.852 399.534 242.188 400.09C242.51 400.652 242.709 401.283 242.73 401.921C242.792 403.19 242.208 404.487 241.145 405.194C240.61 405.537 239.958 405.688 239.334 405.612C238.71 405.53 238.126 405.235 237.701 404.782C236.816 403.883 236.864 402.326 237.735 401.503C236.919 402.388 237.022 403.87 237.873 404.617C238.277 405.009 238.819 405.242 239.368 405.29C239.917 405.324 240.473 405.173 240.912 404.858C241.79 404.206 242.25 403.046 242.133 401.969C242.085 401.427 241.893 400.913 241.605 400.467C241.31 400.035 240.891 399.664 240.432 399.397C239.519 398.848 238.367 398.738 237.386 399.115C236.398 399.465 235.636 400.302 235.156 401.27C234.209 403.204 234.635 405.715 236.206 407.135C237.735 408.651 240.116 409.125 242.071 408.377C243.066 408.02 243.903 407.362 244.582 406.518C245.261 405.681 245.762 404.707 246.057 403.664C246.64 401.585 246.366 399.273 245.282 397.421C244.754 396.488 244.006 395.699 243.141 395.02C242.284 394.354 241.317 393.833 240.281 393.51C238.216 392.859 235.917 392.996 233.935 393.888C232.94 394.327 232.034 394.958 231.259 395.726C231.053 395.905 230.875 396.117 230.697 396.33C230.518 396.543 230.326 396.742 230.161 396.968C229.853 397.428 229.496 397.86 229.242 398.354C228.103 400.268 227.534 402.504 227.486 404.741C227.493 406.977 227.987 409.241 229.078 411.21C230.127 413.2 231.781 414.86 233.667 416.136C235.561 417.405 237.756 418.229 240.034 418.537C242.311 418.853 244.671 418.592 246.867 417.838C249.062 417.076 251.093 415.807 252.787 414.16L252.801 414.154Z" fill="#F2992F"/>
<path d="M469.366 151.843V151.898C467.13 177.275 460.852 220.942 443.495 261.988C417.954 296.153 320.308 296.867 302.19 296.867H291.817C273.698 296.867 176.053 296.16 150.512 261.988C133.155 220.942 126.877 177.282 124.641 151.898C123.166 135.467 126.171 119.098 133.209 104.197C150.402 67.5689 193.575 4.30838 287.344 0.219535C290.507 0.0548838 293.731 0 297.003 0C397.482 0 443.001 66.3134 460.797 104.19C467.836 119.091 470.841 135.412 469.366 151.836V151.843Z" fill="#E10101"/>
<path d="M428.759 261.762H175.676C161.488 231.528 162.956 194.357 165.09 174.874C166.016 166.634 171.422 159.589 179.23 156.81C180.375 156.426 181.576 155.994 182.831 155.555C204.339 148.296 246.524 137.052 302.197 137.052H302.252C357.87 137.052 400.055 148.296 421.562 155.555C422.873 155.994 424.073 156.426 425.219 156.81C433.026 159.595 438.48 166.634 439.352 174.874C441.478 194.357 442.953 231.528 428.766 261.762H428.759Z" fill="#241C42"/>
<path d="M428.759 261.762C426.467 276.059 419.483 289.162 407.203 299.913C387.225 317.489 353.115 328.789 302.19 328.789C231.835 328.789 193.629 307.178 180.368 277.376C180.149 276.992 179.984 276.56 179.764 276.121C179.655 275.956 179.6 275.846 179.545 275.682V275.627C179.106 274.536 178.674 273.39 178.289 272.244C177.96 271.373 177.686 270.44 177.473 269.569C177.144 268.588 176.876 267.607 176.657 266.619C176.492 265.96 176.327 265.308 176.218 264.657C175.998 263.731 175.833 262.75 175.669 261.762C175.504 260.835 175.394 259.957 175.285 259.031C175.175 258.16 175.065 257.227 175.01 256.301C173.81 241.235 177.576 225.079 185.493 209.197C185.164 207.18 184.889 205.101 184.622 203.084C184.292 200.518 184.018 198.007 183.75 195.496C183.641 194.241 183.531 192.985 183.421 191.785C182.55 181.254 182.385 171.32 182.605 162.587C182.66 161.276 182.714 160.021 182.714 158.765C182.714 157.784 182.769 156.803 182.824 155.815V155.541C204.332 148.282 246.517 137.038 302.19 137.038H302.245C357.863 137.038 400.048 148.282 421.555 155.541C421.665 157.777 421.72 160.178 421.775 162.635V162.689C422.104 176.115 421.555 192.382 418.88 209.19C420.739 212.956 422.372 216.723 423.792 220.489C429.033 234.622 430.885 248.706 428.759 261.748V261.762Z" fill="#EA9F76"/>
<path d="M252.904 164.7C252.822 166.607 252.218 168.384 251.504 170.078C250.736 171.745 249.782 173.323 248.657 174.771C247.539 176.232 246.242 177.542 244.85 178.736C244.136 179.312 243.409 179.882 242.668 180.424C241.893 180.918 241.111 181.398 240.315 181.865C239.533 182.352 238.669 182.681 237.838 183.072L236.576 183.614C236.158 183.792 235.712 183.916 235.273 184.053C234.394 184.321 233.516 184.568 232.631 184.794C231.733 184.972 230.827 185.096 229.928 185.206C229.023 185.315 228.124 185.411 227.205 185.363C226.292 185.35 225.387 185.308 224.488 185.233C223.589 185.185 222.677 184.938 221.785 184.739C220.893 184.526 220.008 184.252 219.137 183.909C220.728 182.791 222.279 182.077 223.774 181.261C224.515 180.849 225.249 180.458 225.983 180.101C226.347 179.902 226.718 179.772 227.074 179.566C227.431 179.367 227.781 179.168 228.131 178.983C228.831 178.606 229.544 178.276 230.244 177.933C230.923 177.549 231.609 177.179 232.295 176.843C232.995 176.52 233.653 176.136 234.319 175.766L235.327 175.23L235.835 174.977L236.322 174.682C239.005 173.248 241.577 171.656 244.287 170.03C245.659 169.228 246.99 168.349 248.431 167.485L252.904 164.693V164.7Z" fill="#151515"/>
<path d="M349.527 165.221L354.083 167.869C355.544 168.692 356.909 169.529 358.302 170.284C361.06 171.821 363.68 173.337 366.404 174.688L366.905 174.963L367.426 175.203L368.455 175.704C369.135 176.054 369.807 176.424 370.514 176.719C371.213 177.042 371.906 177.385 372.599 177.748C373.306 178.071 374.026 178.379 374.74 178.736C375.096 178.908 375.453 179.1 375.817 179.285C376.173 179.477 376.558 179.601 376.921 179.786C377.662 180.115 378.41 180.486 379.165 180.877C380.681 181.645 382.259 182.31 383.878 183.381C383.02 183.751 382.142 184.053 381.257 184.293C380.372 184.526 379.467 184.794 378.575 184.869C377.676 184.965 376.77 185.041 375.858 185.082C374.939 185.151 374.04 185.082 373.134 185.007C372.229 184.924 371.316 184.828 370.418 184.677C369.533 184.478 368.641 184.266 367.756 184.019C367.317 183.895 366.864 183.792 366.438 183.621L365.156 183.12C364.312 182.756 363.44 182.454 362.645 181.988C361.835 181.549 361.039 181.096 360.25 180.623C359.489 180.101 358.748 179.559 358.014 179.004C356.58 177.851 355.242 176.582 354.083 175.155C352.916 173.742 351.908 172.191 351.092 170.552C350.323 168.878 349.665 167.128 349.527 165.221Z" fill="#151515"/>
<path d="M407.196 299.906C358.713 285.897 406.318 236.7 423.778 220.503C434.748 249.996 430.755 279.276 407.196 299.906Z" fill="#FCB18B"/>
<path d="M323.327 236.014C324.768 237.297 326.058 238.779 327.114 240.467C328.177 242.148 329.008 244.034 329.371 246.14C329.728 248.253 329.46 250.559 328.596 252.582C327.759 254.62 326.442 256.39 324.932 257.885C321.886 260.877 318.106 262.804 314.23 264.094C310.326 265.357 306.258 265.933 302.204 265.953C300.173 265.94 298.149 265.796 296.132 265.501C294.122 265.185 292.126 264.739 290.177 264.101C286.301 262.811 282.521 260.89 279.468 257.892C277.952 256.404 276.642 254.627 275.798 252.589C274.94 250.572 274.666 248.26 275.022 246.147C275.386 244.041 276.216 242.154 277.28 240.474C278.336 238.793 279.633 237.304 281.073 236.021C280.593 236.858 280.12 237.688 279.722 238.546C279.303 239.39 278.94 240.254 278.638 241.132C278.048 242.882 277.657 244.672 277.691 246.367C277.719 249.749 279.667 252.617 282.322 254.689C284.984 256.788 288.263 258.208 291.652 259.134C293.354 259.594 295.096 259.937 296.866 260.149C298.629 260.383 300.413 260.492 302.197 260.486C303.981 260.499 305.764 260.376 307.527 260.156C309.291 259.944 311.033 259.594 312.741 259.141C316.13 258.208 319.417 256.795 322.078 254.695C324.74 252.617 326.689 249.749 326.716 246.367C326.75 244.665 326.359 242.875 325.763 241.125C325.468 240.247 325.097 239.39 324.679 238.539C324.281 237.681 323.807 236.851 323.327 236.014Z" fill="#C6764E"/>
<path d="M322.408 245.852C322.408 249.516 313.366 256.754 302.21 256.754C291.055 256.754 282.013 249.509 282.013 245.852C282.013 242.196 291.055 244.576 302.21 244.576C313.366 244.576 322.408 242.189 322.408 245.852Z" fill="#FCB18B"/>
<g style="mix-blend-mode:soft-light" opacity="0.5">
<path d="M240.089 246.394C249.876 246.394 257.809 232.969 257.809 216.407C257.809 199.846 249.876 186.42 240.089 186.42C230.302 186.42 222.368 199.846 222.368 216.407C222.368 232.969 230.302 246.394 240.089 246.394Z" fill="#151515"/>
</g>
<path d="M240.089 244.233C245.253 244.233 249.439 236.447 249.439 226.842C249.439 217.237 245.253 209.451 240.089 209.451C234.924 209.451 230.738 217.237 230.738 226.842C230.738 236.447 234.924 244.233 240.089 244.233Z" fill="#241C42"/>
<path d="M245.584 220.544C245.584 223.761 244.027 226.368 242.106 226.368C240.185 226.368 238.627 223.761 238.627 220.544C238.627 217.326 240.185 214.719 242.106 214.719C244.027 214.719 245.584 217.326 245.584 220.544Z" fill="white"/>
<path d="M240.734 227.85C240.734 229.01 239.794 229.956 238.628 229.956C237.461 229.956 236.521 229.017 236.521 227.85C236.521 226.684 237.461 225.744 238.628 225.744C239.794 225.744 240.734 226.684 240.734 227.85Z" fill="white"/>
<g style="mix-blend-mode:soft-light" opacity="0.5">
<path d="M364.325 246.394C374.112 246.394 382.046 232.969 382.046 216.407C382.046 199.846 374.112 186.42 364.325 186.42C354.538 186.42 346.604 199.846 346.604 216.407C346.604 232.969 354.538 246.394 364.325 246.394Z" fill="#151515"/>
</g>
<path d="M364.325 244.233C369.489 244.233 373.676 236.447 373.676 226.842C373.676 217.237 369.489 209.451 364.325 209.451C359.161 209.451 354.974 217.237 354.974 226.842C354.974 236.447 359.161 244.233 364.325 244.233Z" fill="#241C42"/>
<path d="M369.82 220.544C369.82 223.761 368.263 226.368 366.342 226.368C364.421 226.368 362.864 223.761 362.864 220.544C362.864 217.326 364.421 214.719 366.342 214.719C368.263 214.719 369.82 217.326 369.82 220.544Z" fill="white"/>
<path d="M364.97 227.85C364.97 229.01 364.03 229.956 362.864 229.956C361.698 229.956 360.758 229.017 360.758 227.85C360.758 226.684 361.698 225.744 362.864 225.744C364.03 225.744 364.97 226.684 364.97 227.85Z" fill="white"/>
<path d="M240.466 287.468C241.735 284.751 243.828 282.288 246.716 280.854C248.15 280.141 249.797 279.77 251.436 279.757C253.083 279.757 254.716 280.093 256.239 280.642C257.762 281.204 259.189 281.966 260.506 282.851C261.164 283.269 261.816 283.784 262.42 284.202C262.989 284.614 263.559 285.026 264.156 285.382C265.336 286.103 266.543 286.741 267.785 287.166C269.026 287.591 270.282 287.818 271.517 287.831C274 287.838 276.402 286.926 278.686 285.471C280.991 284.017 283.104 282.103 285.601 280.155C286.233 279.667 286.905 279.174 287.68 278.714C288.064 278.467 288.476 278.289 288.874 278.083C289.08 277.987 289.279 277.884 289.484 277.788L290.129 277.548C291.844 276.903 293.786 276.608 295.652 276.752C297.525 276.896 299.295 277.431 300.859 278.158C302.423 278.885 303.864 279.757 305.174 280.717C306.485 281.684 307.706 282.707 308.858 283.777C309.442 284.312 310.004 284.847 310.553 285.403L311.356 286.199C311.582 286.411 311.802 286.651 312.035 286.837C313.88 288.504 315.904 289.252 318.154 288.963C320.432 288.703 322.868 287.399 325.152 285.828C326.305 285.032 327.423 284.147 328.534 283.228C329.09 282.768 329.646 282.295 330.195 281.815L331.889 280.319C333.172 279.201 334.736 278.179 336.63 277.712C338.523 277.239 340.616 277.52 342.214 278.295C343.847 279.05 345.144 280.086 346.31 281.149C347.476 282.22 348.519 283.338 349.527 284.442C350.529 285.554 351.51 286.645 352.56 287.571C353.5 288.421 354.714 288.874 356.065 288.874C357.41 288.874 358.816 288.456 360.141 287.845C361.471 287.241 362.741 286.439 363.921 285.519C362.953 286.672 361.808 287.681 360.545 288.566C359.269 289.416 357.829 290.13 356.189 290.39C355.373 290.514 354.501 290.514 353.657 290.315C352.807 290.123 351.997 289.752 351.284 289.258C349.966 288.353 348.807 287.344 347.668 286.37C346.536 285.389 345.445 284.408 344.313 283.564C343.188 282.72 342.022 282.007 340.876 281.616C339.724 281.225 338.681 281.211 337.679 281.534C336.678 281.87 335.704 282.583 334.798 283.482L333.227 285.06C332.685 285.602 332.136 286.137 331.573 286.665C330.442 287.722 329.262 288.744 327.999 289.718C326.737 290.692 325.385 291.605 323.89 292.387C322.387 293.148 320.741 293.807 318.902 294.095C317.084 294.404 315.074 294.273 313.263 293.663C311.431 293.08 309.853 292.051 308.509 290.919C308.159 290.644 307.871 290.329 307.548 290.034L306.752 289.258C306.245 288.751 305.723 288.264 305.202 287.79C304.159 286.83 303.075 285.945 301.977 285.135C299.789 283.537 297.436 282.302 295.213 282.124C294.102 282.014 293.011 282.151 291.927 282.528C290.815 282.913 289.834 283.468 288.682 284.312C286.404 285.952 284.003 288.01 281.149 289.608C279.729 290.418 278.185 291.125 276.518 291.584C274.858 292.044 273.074 292.25 271.325 292.119C269.575 291.996 267.881 291.516 266.344 290.85C264.8 290.178 263.408 289.3 262.132 288.325C261.487 287.845 260.89 287.317 260.3 286.796C259.724 286.302 259.243 285.828 258.681 285.389C257.597 284.484 256.424 283.736 255.203 283.111C253.981 282.487 252.685 282.041 251.34 281.87C249.996 281.705 248.623 281.849 247.292 282.261C245.962 282.679 244.692 283.393 243.554 284.298C242.394 285.19 241.358 286.267 240.48 287.482L240.466 287.468Z" fill="#241C42"/>
<g style="mix-blend-mode:soft-light" opacity="0.5">
<path d="M198.103 169.468C186.316 248.391 256.067 329.495 348.69 320.762C273.918 339.21 196.682 311.267 180.368 277.369C180.149 276.985 179.984 276.553 179.764 276.114C179.655 275.949 179.6 275.839 179.545 275.675V275.62C179.106 274.529 178.674 273.383 178.289 272.238C177.96 271.366 177.686 270.433 177.473 269.562C177.144 268.581 176.876 267.6 176.657 266.612C176.492 265.953 176.327 265.302 176.218 264.65C175.998 263.724 175.833 262.743 175.669 261.755C175.504 260.829 175.394 259.95 175.285 259.024C175.175 258.153 175.065 257.22 175.01 256.294C173.81 241.228 177.576 225.072 185.493 209.19C185.164 207.173 184.889 205.094 184.622 203.077C184.292 200.511 184.018 198 183.75 195.489C183.641 194.234 183.531 192.978 183.421 191.778C182.55 181.247 182.385 171.313 182.605 162.58C182.66 161.269 182.714 160.014 182.714 158.758C182.769 157.777 182.824 156.851 182.879 155.918L182.824 155.808V155.534C204.332 148.276 246.517 137.031 302.19 137.031H302.245C357.863 137.031 400.048 148.276 421.555 155.534C421.665 157.77 421.72 160.172 421.775 162.628V162.683C322.387 131.68 223.596 160.83 198.109 169.447L198.103 169.468Z" fill="#151515"/>
</g>
<path d="M469.366 151.843C221.737 122.693 262.509 33.4586 287.344 0.219535C290.506 0.0548838 293.731 0 297.003 0C397.482 0 443.001 66.3134 460.797 104.19C467.836 119.091 470.841 135.412 469.366 151.836V151.843Z" fill="#FD5602"/>
<path d="M187.736 394.951C190.021 398.457 191.75 402.196 193.293 405.99C194.809 409.79 196.079 413.687 197.121 417.639C198.157 421.597 198.94 425.631 199.447 429.706C199.914 433.788 200.106 437.932 199.653 442.089C198.089 438.206 196.868 434.358 195.681 430.495C194.487 426.64 193.403 422.77 192.388 418.874C191.366 414.984 190.439 411.059 189.616 407.094C188.813 403.122 188.093 399.115 187.729 394.951H187.736Z" fill="#8E0C2E"/>
<path d="M416.636 394.951C416.273 399.115 415.559 403.122 414.75 407.094C413.933 411.059 413 414.984 411.978 418.874C410.963 422.77 409.879 426.64 408.685 430.495C407.498 434.358 406.277 438.206 404.713 442.089C404.253 437.932 404.452 433.788 404.918 429.706C405.426 425.631 406.201 421.597 407.244 417.639C408.287 413.68 409.556 409.79 411.072 405.99C412.616 402.196 414.345 398.464 416.629 394.951H416.636Z" fill="#8E0C2E"/>
<path d="M448.037 515.894V574.922C448.037 580.5 443.509 585.027 437.931 585.027H151.108C145.531 585.027 141.003 580.5 141.003 574.922V515.894C141.003 510.317 145.531 505.789 151.108 505.789H437.938C441.314 505.789 444.298 507.435 446.13 509.974C447.33 511.648 448.044 513.692 448.044 515.888L448.037 515.894Z" fill="#D3C7AE"/>
<path d="M421.782 468.598V495.608C421.782 496.157 421.727 496.706 421.651 497.234C420.869 502.023 416.705 505.714 411.676 505.714H177.356C171.779 505.714 167.251 501.186 167.251 495.608V468.598C167.251 463.021 171.779 458.493 177.356 458.493H411.676C415.731 458.493 419.216 460.873 420.835 464.331C421.439 465.614 421.775 467.055 421.775 468.598H421.782Z" fill="#EFE5D3"/>
<g style="mix-blend-mode:soft-light" opacity="0.5">
<path d="M448.037 563.98V574.922C448.037 580.5 443.509 585.027 437.931 585.027H151.108C145.531 585.027 141.003 580.5 141.003 574.922V515.894C141.003 510.317 145.531 505.789 151.108 505.789H437.938C441.314 505.789 444.298 507.435 446.13 509.974L179.689 511.442L232.199 563.973H448.044L448.037 563.98Z" fill="#151515"/>
</g>
<path d="M1.44067 192.128C3.47824 193.781 5.50894 195.448 7.5122 197.143C9.52232 198.83 11.5256 200.518 13.5083 202.233C15.4909 203.948 17.4942 205.643 19.4563 207.379L25.3563 212.572L22.4337 213.43C23.3393 208.785 24.2998 204.154 25.274 199.53C26.2482 194.899 27.2498 190.282 28.272 185.665L29.1502 181.714L32.3403 184.321L38.5079 189.356L44.648 194.419L50.7607 199.517L56.8459 204.641L52.5581 205.773C54.9181 199.462 57.3261 193.171 59.7753 186.886L63.48 177.481L67.2601 168.102L68.4264 165.214L70.5463 167.327C72.8377 169.612 75.1154 171.903 77.3725 174.222C79.6296 176.541 81.921 178.818 84.1506 181.165C86.3871 183.504 88.6511 185.816 90.8533 188.19C93.0761 190.543 95.2852 192.917 97.4531 195.325C94.9079 193.315 92.3969 191.263 89.9066 189.198C87.3956 187.154 84.9396 185.041 82.463 182.962C79.9726 180.89 77.5508 178.75 75.0948 176.644C72.6387 174.538 70.1964 172.418 67.7747 170.277L71.0608 169.502L67.809 179.079L64.4816 188.629C62.2383 194.989 59.9674 201.328 57.6417 207.653L56.3108 211.262L53.3539 208.785L47.2481 203.674L41.1697 198.535L35.1188 193.363L29.0953 188.162L33.1635 186.818C31.9904 191.401 30.8035 195.977 29.5755 200.539C28.3543 205.108 27.1195 209.67 25.8365 214.225L24.9858 217.237L22.9208 215.09L17.4736 209.43C15.6556 207.55 13.8719 205.622 12.0744 203.715C10.2701 201.815 8.49325 199.887 6.72324 197.952C4.93952 196.025 3.1901 194.076 1.44753 192.107L1.44067 192.128Z" fill="black"/>
<path d="M7.87578 292.208C10.2838 293.251 12.685 294.315 15.0656 295.412C17.453 296.496 19.8405 297.587 22.2073 298.712C24.5742 299.83 26.9616 300.921 29.3148 302.067L36.3879 305.49L33.8084 307.103C33.4379 302.389 33.1155 297.669 32.8136 292.949C32.5049 288.229 32.2373 283.509 31.9835 278.789L31.764 274.749L35.5372 276.402L42.8299 279.592L50.102 282.816L57.3604 286.089L64.5982 289.389L60.7769 291.632C61.3532 284.916 61.9913 278.206 62.6567 271.504L63.6995 261.446L64.8246 251.395L65.1677 248.301L67.7815 249.77C70.6012 251.354 73.414 252.953 76.2062 254.579C79.0052 256.205 81.8249 257.783 84.6034 259.45C87.3819 261.103 90.1878 262.722 92.9457 264.417C95.7174 266.091 98.4822 267.778 101.219 269.521C98.2283 268.265 95.2646 266.969 92.3009 265.652C89.3303 264.355 86.4008 262.983 83.4577 261.645C80.5077 260.314 77.5989 258.908 74.6626 257.542C71.7331 256.177 68.8106 254.785 65.9017 253.378L68.8586 251.752L68.3029 261.851L67.658 271.943C67.2052 278.666 66.7181 285.389 66.1761 292.106L65.8674 295.941L62.3549 294.349L55.1033 291.07L47.8655 287.756L40.6483 284.401L33.4448 281.012L37.0054 278.625C37.1083 283.352 37.1906 288.078 37.2386 292.805C37.2935 297.532 37.3278 302.259 37.3072 306.993L37.2935 310.121L34.7277 308.605L27.9564 304.612C25.6993 303.288 23.4697 301.909 21.2194 300.558C18.9692 299.213 16.7464 297.827 14.5167 296.441C12.2871 295.062 10.0711 293.656 7.86206 292.229L7.87578 292.208Z" fill="black"/>
<path d="M35.894 360.738C38.5079 361.019 41.1149 361.321 43.715 361.657C46.3151 361.986 48.9221 362.316 51.5154 362.686C54.1086 363.05 56.7087 363.386 59.302 363.777L67.0749 364.936L65.0922 367.242C63.336 362.851 61.6277 358.44 59.94 354.021C58.2455 349.61 56.5784 345.185 54.9387 340.753L53.5323 336.959L57.628 337.412L65.5382 338.29L73.4415 339.21L81.3447 340.177L89.2411 341.179L86.2568 344.458C84.8093 337.879 83.4235 331.279 82.0719 324.679L80.0755 314.766L78.1615 304.839L77.5715 301.779L80.5009 302.403C83.6636 303.075 86.8194 303.768 89.9752 304.489C93.131 305.209 96.2937 305.881 99.4358 306.643C102.585 307.398 105.741 308.111 108.876 308.907C112.018 309.682 115.16 310.471 118.295 311.322C115.064 311.013 111.846 310.656 108.629 310.272C105.411 309.915 102.207 309.476 98.9899 309.078C95.7792 308.687 92.5822 308.207 89.3715 307.775C86.1676 307.343 82.9638 306.883 79.7668 306.403L82.1062 303.967L84.576 313.771L86.9635 323.595C88.5277 330.147 90.0644 336.712 91.5394 343.285L92.3832 347.037L88.5551 346.564L80.6587 345.583L72.7623 344.568L64.8727 343.504L56.99 342.407L59.6793 339.072C61.1818 343.552 62.6636 348.046 64.1181 352.546C65.5725 357.047 67.0132 361.547 68.4059 366.075L69.3252 369.066L66.4232 368.387L58.7737 366.59C56.2216 366 53.6833 365.341 51.138 364.724C48.5928 364.106 46.0544 363.448 43.516 362.789C40.9777 362.137 38.4461 361.451 35.9146 360.745L35.894 360.738Z" fill="black"/>
<path d="M595.126 192.128C593.384 194.09 591.627 196.045 589.85 197.973C588.074 199.907 586.304 201.835 584.499 203.736C582.695 205.636 580.918 207.564 579.1 209.45L573.653 215.11L571.588 217.258L570.737 214.246C569.447 209.691 568.213 205.128 566.998 200.559C565.777 195.99 564.583 191.414 563.41 186.838L567.478 188.183L561.455 193.383L555.404 198.556L549.326 203.694L543.22 208.806L540.263 211.282L538.932 207.674C536.606 201.348 534.329 195.009 532.085 188.649L528.758 179.1L525.506 169.522L528.792 170.298C526.37 172.438 523.928 174.558 521.472 176.664C519.016 178.763 516.594 180.911 514.104 182.983C511.62 185.061 509.171 187.168 506.66 189.219C504.163 191.284 501.659 193.335 499.114 195.345C501.282 192.937 503.491 190.564 505.714 188.21C507.916 185.837 510.18 183.525 512.416 181.185C514.646 178.839 516.937 176.561 519.194 174.242C521.452 171.93 523.729 169.632 526.021 167.348L528.14 165.235L529.307 168.123L533.087 177.501L536.792 186.907C539.241 193.184 541.649 199.482 544.009 205.794L539.721 204.662L545.806 199.537L551.919 194.44L558.059 189.377L564.227 184.341L567.417 181.734L568.295 185.686C569.317 190.303 570.326 194.92 571.293 199.551C572.267 204.175 573.228 208.806 574.14 213.45L571.217 212.593L577.117 207.399C579.08 205.663 581.083 203.969 583.065 202.254C585.041 200.539 587.051 198.844 589.062 197.163C591.065 195.469 593.089 193.802 595.133 192.148L595.126 192.128Z" fill="black"/>
<path d="M588.691 292.208C586.482 293.635 584.273 295.042 582.036 296.421C579.807 297.807 577.584 299.186 575.334 300.537C573.09 301.889 570.861 303.268 568.597 304.592L561.825 308.584L559.259 310.101L559.246 306.972C559.225 302.238 559.266 297.512 559.314 292.785C559.362 288.058 559.445 283.331 559.548 278.604L563.101 280.992L555.898 284.381L548.681 287.735L541.443 291.049L534.191 294.328L530.679 295.92L530.37 292.085C529.828 285.369 529.341 278.645 528.888 271.922L528.243 261.83L527.688 251.732L530.644 253.358C527.736 254.764 524.813 256.157 521.884 257.522C518.954 258.887 516.045 260.3 513.088 261.624C510.138 262.962 507.209 264.334 504.245 265.631C501.288 266.948 498.318 268.252 495.327 269.5C498.064 267.765 500.829 266.07 503.6 264.396C506.358 262.701 509.164 261.082 511.943 259.429C514.721 257.769 517.541 256.184 520.34 254.558C523.139 252.932 525.945 251.334 528.765 249.749L531.378 248.281L531.722 251.375L532.847 261.425L533.889 271.483C534.562 278.192 535.193 284.895 535.769 291.612L531.948 289.368L539.186 286.068L546.444 282.796L553.716 279.571L561.009 276.381L564.782 274.728L564.563 278.769C564.309 283.489 564.034 288.209 563.732 292.929C563.431 297.649 563.115 302.369 562.738 307.082L560.158 305.47L567.231 302.046C569.585 300.901 571.972 299.81 574.339 298.692C576.706 297.566 579.093 296.483 581.481 295.392C583.861 294.294 586.262 293.237 588.67 292.188L588.691 292.208Z" fill="black"/>
<path d="M560.673 360.738C558.141 361.444 555.61 362.13 553.071 362.782C550.533 363.441 547.994 364.099 545.449 364.717C542.904 365.334 540.366 365.993 537.814 366.583L530.164 368.38L527.262 369.06L528.181 366.068C529.567 361.547 531.008 357.04 532.469 352.54C533.917 348.039 535.405 343.552 536.908 339.066L539.597 342.4L531.715 343.497L523.825 344.561L515.929 345.576L508.032 346.557L504.204 347.031L505.048 343.278C506.523 336.706 508.06 330.14 509.624 323.588L512.011 313.764L514.481 303.96L516.82 306.396C513.623 306.876 510.42 307.336 507.216 307.768C504.012 308.2 500.815 308.68 497.597 309.072C494.387 309.469 491.183 309.909 487.958 310.265C484.741 310.643 481.523 311.006 478.292 311.315C481.42 310.471 484.562 309.675 487.711 308.9C490.854 308.104 494.009 307.391 497.151 306.636C500.3 305.875 503.463 305.202 506.612 304.482C509.768 303.762 512.924 303.069 516.086 302.396L519.016 301.772L518.426 304.832L516.512 314.759L514.515 324.672C513.164 331.272 511.771 337.872 510.33 344.451L507.346 341.172L515.243 340.17L523.139 339.203L531.042 338.283L538.952 337.405L543.048 336.953L541.642 340.746C539.995 345.178 538.335 349.603 536.64 354.015C534.953 358.433 533.244 362.844 531.488 367.235L529.505 364.93L537.278 363.77C539.865 363.379 542.472 363.043 545.065 362.679C547.658 362.309 550.258 361.98 552.865 361.65C555.466 361.314 558.073 361.012 560.686 360.731L560.673 360.738Z" fill="black"/>
</g>
<defs>
<clipPath id="clip0_5786_45510">
<rect width="593.685" height="606" fill="white" transform="translate(0.157227)"/>
</clipPath>
</defs>
</svg>
